<svg id="Laag_1" data-name="Laag 1" xmlns="http://www.w3.org/2000/svg" viewBox="0 0 1209.09 496.7"><defs><style>.cls-1{font-size:350px;font-family:Cocogoose, Cocogoose;}</style></defs><title>SPEXTlogo</title><text class="cls-1" transform="translate(0 338.05)">SPEXT</text><path d="M1202.39,643.83a182.18,182.18,0,0,1-16,9.28c-10.83,5.64-22.44,9.44-32.93,15.76l-.35.21a5.42,5.42,0,0,1,3.29,3.38,37,37,0,0,1,1.64,10.56c.66,1.31,1.29,2.62,1.87,4a62.66,62.66,0,0,1,3.09,8.4c8.41-5.21,17.33-9.78,22.62-17.71,6.74-10.12,11.67-21.6,17.54-32.61Z" transform="translate(-289.09 -364.37)"/><path d="M1286.44,769.69a30.93,30.93,0,0,0-2.72-4.46l-80.51-120.17c-5.87,11-10.8,22.49-17.54,32.61-5.29,7.93-14.21,12.5-22.62,17.71.14.55.27,1.09.4,1.64a6.13,6.13,0,0,1,.37.94c0,.1.06.2.08.3a6,6,0,0,1,.38.76l0,.06.24-.35,47.6,70.52A11.73,11.73,0,0,0,1216,774a9.09,9.09,0,0,0,5.42,1.75h62.65c2.1,0,3.15-.87,3.15-2.62A6.33,6.33,0,0,0,1286.44,769.69Z" transform="translate(-289.09 -364.37)"/><path d="M1029.54,496.87a183.52,183.52,0,0,1,16-9.16c10.87-5.55,22.51-9.27,33-15.51l.36-.21a5.38,5.38,0,0,1-3.26-3.41,37,37,0,0,1-1.57-10.57c-.65-1.31-1.26-2.63-1.84-4a62.83,62.83,0,0,1-3-8.43c-8.45,5.15-17.41,9.66-22.75,17.55-6.82,10.07-11.84,21.51-17.79,32.48Z" transform="translate(-289.09 -364.37)"/><path d="M946.44,370.39a30.6,30.6,0,0,0,2.68,4.48l79.61,120.77c6-11,11-22.41,17.79-32.48,5.34-7.89,14.3-12.4,22.75-17.55-.15-.54-.27-1.08-.39-1.63a6.26,6.26,0,0,1-.37-1c0-.1,0-.2-.08-.3a7.6,7.6,0,0,1-.37-.76l0-.06-.24.35-47.07-70.88a12,12,0,0,0-3.81-4.76,9.24,9.24,0,0,0-5.42-1.79l-62.64-.46c-2.1,0-3.16.85-3.17,2.6A6.32,6.32,0,0,0,946.44,370.39Z" transform="translate(-289.09 -364.37)"/></svg>